Monda-Bold.ufo
<glyph name="numbersign" format="1">
  <advance width="1509"/>
  <unicode hex="0023"/>
  <outline>
    <contour>
      <point x="251" y="0" type="line"/>
      <point x="469" y="0" type="line"/>
      <point x="551" y="480" type="line"/>
      <point x="790" y="480" type="line"/>
      <point x="705" y="0" type="line"/>
      <point x="923" y="0" type="line"/>
      <point x="1005" y="480" type="line"/>
      <point x="1283" y="480" type="line"/>
      <point x="1283" y="629" type="line"/>
      <point x="1031" y="629" type="line"/>
      <point x="1076" y="890" type="line"/>
      <point x="1307" y="890" type="line"/>
      <point x="1307" y="1039" type="line"/>
      <point x="1102" y="1039" type="line"/>
      <point x="1179" y="1490" type="line"/>
      <point x="969" y="1490" type="line"/>
      <point x="889" y="1039" type="line"/>
      <point x="648" y="1039" type="line"/>
      <point x="725" y="1490" type="line"/>
      <point x="515" y="1490" type="line"/>
      <point x="435" y="1039" type="line"/>
      <point x="145" y="1039" type="line"/>
      <point x="145" y="890" type="line"/>
      <point x="409" y="890" type="line"/>
      <point x="362" y="629" type="line"/>
      <point x="121" y="629" type="line"/>
      <point x="121" y="480" type="line"/>
      <point x="336" y="480" type="line"/>
    </contour>
    <contour>
      <point x="577" y="629" type="line"/>
      <point x="622" y="890" type="line"/>
      <point x="863" y="890" type="line"/>
      <point x="816" y="629" type="line"/>
    </contour>
  </outline>
</glyph>
<glyph name="dollar" format="1">
  <advance width="1303"/>
  <unicode hex="0024"/>
  <outline>
    <contour>
      <point x="650" y="-242" type="line"/>
      <point x="760" y="-242" type="line"/>
      <point x="760" y="1638" type="line"/>
      <point x="650" y="1638" type="line"/>
    </contour>
    <component base="S"/>
  </outline>
</glyph>
<glyph name="parenright" format="1">
  <advance width="1024"/>
  <unicode hex="0029"/>
  <outline>
    <contour>
      <point x="206" y="-163" type="line"/>
      <point x="630" y="-165"/>
      <point x="824" y="39"/>
      <point x="824" y="417" type="curve" smooth="yes"/>
      <point x="824" y="1004" type="line" smooth="yes"/>
      <point x="824" y="1380"/>
      <point x="628" y="1580"/>
      <point x="206" y="1578" type="curve"/>
      <point x="206" y="1334" type="line"/>
      <point x="383" y="1334"/>
      <point x="507" y="1308"/>
      <point x="507" y="1033" type="curve" smooth="yes"/>
      <point x="507" y="384" type="line" smooth="yes"/>
      <point x="507" y="108"/>
      <point x="380" y="81"/>
      <point x="206" y="81" type="curve"/>
    </contour>
  </outline>
</glyph>
<glyph name="plus" format="1">
  <advance width="942"/>
  <unicode hex="002B"/>
  <outline>
    <contour>
      <point x="386" y="156" type="line"/>
      <point x="557" y="156" type="line"/>
      <point x="557" y="484" type="line"/>
      <point x="822" y="484" type="line"/>
      <point x="822" y="652" type="line"/>
      <point x="557" y="652" type="line"/>
      <point x="557" y="968" type="line"/>
      <point x="386" y="968" type="line"/>
      <point x="386" y="652" type="line"/>
      <point x="120" y="652" type="line"/>
      <point x="120" y="484" type="line"/>
      <point x="386" y="484" type="line"/>
    </contour>
  </outline>
</glyph>
<glyph name="comma" format="1">
  <advance width="645"/>
  <unicode hex="002C"/>
  <outline>
    <contour>
      <point x="322" y="-412" type="line"/>
      <point x="386" y="-354"/>
      <point x="528" y="-151"/>
      <point x="528" y="54" type="curve" smooth="yes"/>
      <point x="528" y="295" type="line"/>
      <point x="178" y="295" type="line"/>
      <point x="178" y="0" type="line"/>
      <point x="354" y="0" type="line"/>
      <point x="354" y="-141"/>
      <point x="257" y="-305"/>
      <point x="204" y="-364" type="curve"/>
    </contour>
  </outline>
</glyph>
<glyph name="hyphen" format="1">
  <advance width="942"/>
  <unicode hex="002D"/>
  <outline>
    <contour>
      <point x="120" y="494" type="line"/>
      <point x="822" y="494" type="line"/>
      <point x="822" y="642" type="line"/>
      <point x="120" y="642" type="line"/>
    </contour>
  </outline>
</glyph>
<glyph name="two" format="1">
  <advance width="1536"/>
  <unicode hex="0032"/>
  <outline>
    <contour>
      <point x="251" y="0" type="line"/>
      <point x="1318" y="0" type="line"/>
      <point x="1318" y="273" type="line"/>
      <point x="701" y="273" type="line"/>
      <point x="1011" y="554" type="line"/>
      <point x="1193" y="711"/>
      <point x="1310" y="894"/>
      <point x="1310" y="1108" type="curve" smooth="yes"/>
      <point x="1310" y="1357"/>
      <point x="1170" y="1518"/>
      <point x="761" y="1518" type="curve" smooth="yes"/>
      <point x="316" y="1518"/>
      <point x="218" y="1345"/>
      <point x="218" y="978" type="curve"/>
      <point x="570" y="978" type="line"/>
      <point x="570" y="1184"/>
      <point x="580" y="1267"/>
      <point x="761" y="1267" type="curve" smooth="yes"/>
      <point x="933" y="1267"/>
      <point x="947" y="1207"/>
      <point x="947" y="1093" type="curve" smooth="yes"/>
      <point x="947" y="971"/>
      <point x="867" y="885"/>
      <point x="758" y="774" type="curve" smooth="yes"/>
      <point x="251" y="256" type="line"/>
    </contour>
  </outline>
</glyph>
<glyph name="three" format="1">
  <advance width="1536"/>
  <unicode hex="0033"/>
  <outline>
    <contour>
      <point x="808" y="-29" type="curve" smooth="yes"/>
      <point x="1240" y="-29"/>
      <point x="1330" y="172"/>
      <point x="1330" y="439" type="curve" smooth="yes"/>
      <point x="1330" y="571"/>
      <point x="1298" y="731"/>
      <point x="1113" y="785" type="curve"/>
      <point x="1312" y="831"/>
      <point x="1324" y="989"/>
      <point x="1324" y="1106" type="curve" smooth="yes"/>
      <point x="1324" y="1358"/>
      <point x="1150" y="1519"/>
      <point x="804" y="1519" type="curve" smooth="yes"/>
      <point x="456" y="1519"/>
      <point x="278" y="1380"/>
      <point x="278" y="1012" type="curve"/>
      <point x="567" y="1012" type="line"/>
      <point x="567" y="1203"/>
      <point x="599" y="1267"/>
      <point x="808" y="1267" type="curve" smooth="yes"/>
      <point x="982" y="1267"/>
      <point x="1034" y="1204"/>
      <point x="1034" y="1086" type="curve" smooth="yes"/>
      <point x="1034" y="950"/>
      <point x="1028" y="893"/>
      <point x="749" y="893" type="curve"/>
      <point x="749" y="673" type="line"/>
      <point x="988" y="673"/>
      <point x="1034" y="621"/>
      <point x="1034" y="456" type="curve" smooth="yes"/>
      <point x="1034" y="303"/>
      <point x="989" y="224"/>
      <point x="808" y="224" type="curve" smooth="yes"/>
      <point x="618" y="224"/>
      <point x="567" y="279"/>
      <point x="567" y="482" type="curve"/>
      <point x="279" y="482" type="line"/>
      <point x="279" y="169"/>
      <point x="407" y="-29"/>
    </contour>
  </outline>
</glyph>
<glyph name="four" format="1">
  <advance width="1536"/>
  <unicode hex="0034"/>
  <outline>
    <contour>
      <point x="891" y="0" type="line"/>
      <point x="1139" y="0" type="line"/>
      <point x="1139" y="308" type="line"/>
      <point x="1385" y="308" type="line"/>
      <point x="1385" y="579" type="line"/>
      <point x="1139" y="579" type="line"/>
      <point x="1139" y="873" type="line"/>
      <point x="891" y="873" type="line"/>
      <point x="891" y="579" type="line"/>
      <point x="529" y="579" type="line"/>
      <point x="966" y="1488" type="line"/>
      <point x="616" y="1490" type="line"/>
      <point x="162" y="571" type="line"/>
      <point x="162" y="308" type="line"/>
      <point x="891" y="308" type="line"/>
    </contour>
  </outline>
</glyph>
<glyph name="seven" format="1">
  <advance width="1089"/>
  <unicode hex="0037"/>
  <outline>
    <contour>
      <point x="218" y="0" type="line"/>
      <point x="577" y="0" type="line"/>
      <point x="1004" y="1262" type="line"/>
      <point x="1004" y="1489" type="line"/>
      <point x="72" y="1489" type="line"/>
      <point x="72" y="1224" type="line"/>
      <point x="625" y="1224" type="line"/>
    </contour>
  </outline>
</glyph>
<glyph name="nine" format="1">
  <advance width="1536"/>
  <unicode hex="0039"/>
  <outline>
    <contour>
      <point x="552" y="0" type="line"/>
      <point x="925" y="0" type="line"/>
      <point x="1204" y="519" type="line"/>
      <point x="1275" y="659"/>
      <point x="1338" y="824"/>
      <point x="1338" y="1036" type="curve" smooth="yes"/>
      <point x="1338" y="1379"/>
      <point x="1195" y="1518"/>
      <point x="790" y="1518" type="curve" smooth="yes"/>
      <point x="392" y="1518"/>
      <point x="225" y="1405"/>
      <point x="225" y="1053" type="curve" smooth="yes"/>
      <point x="225" y="682"/>
      <point x="396" y="570"/>
      <point x="718" y="570" type="curve" smooth="yes"/>
      <point x="734" y="570"/>
      <point x="825" y="575"/>
      <point x="858" y="582" type="curve"/>
    </contour>
    <contour>
      <point x="789" y="815" type="curve" smooth="yes"/>
      <point x="592" y="815"/>
      <point x="553" y="883"/>
      <point x="553" y="1053" type="curve" smooth="yes"/>
      <point x="553" y="1226"/>
      <point x="596" y="1282"/>
      <point x="785" y="1282" type="curve" smooth="yes"/>
      <point x="963" y="1282"/>
      <point x="998" y="1234"/>
      <point x="998" y="1057" type="curve" smooth="yes"/>
      <point x="998" y="879"/>
      <point x="962" y="815"/>
    </contour>
  </outline>
</glyph>
<glyph name="less" format="1">
  <advance width="837"/>
  <unicode hex="003C"/>
  <outline>
    <contour>
      <point x="743" y="44" type="line"/>
      <point x="743" y="285" type="line"/>
      <point x="253" y="549" type="line"/>
      <point x="743" y="810" type="line"/>
      <point x="743" y="1053" type="line"/>
      <point x="61" y="661" type="line"/>
      <point x="61" y="434" type="line"/>
    </contour>
  </outline>
</glyph>
<glyph name="at" format="1">
  <advance width="2048"/>
  <unicode hex="0040"/>
  <outline>
    <contour>
      <point x="1055" y="-573" type="curve" smooth="yes"/>
      <point x="1308" y="-573"/>
      <point x="1573" y="-518"/>
      <point x="1786" y="-471" type="curve"/>
      <point x="1725" y="-240" type="line"/>
      <point x="1536" y="-270"/>
      <point x="1305" y="-320"/>
      <point x="1091" y="-320" type="curve" smooth="yes"/>
      <point x="743" y="-320"/>
      <point x="443" y="-186"/>
      <point x="443" y="391" type="curve" smooth="yes"/>
      <point x="443" y="655" type="line" smooth="yes"/>
      <point x="443" y="1256"/>
      <point x="649" y="1327"/>
      <point x="1039" y="1327" type="curve" smooth="yes"/>
      <point x="1398" y="1327"/>
      <point x="1469" y="1189"/>
      <point x="1469" y="869" type="curve"/>
      <point x="1096" y="777" type="line"/>
      <point x="742" y="679"/>
      <point x="702" y="537"/>
      <point x="702" y="382" type="curve" smooth="yes"/>
      <point x="702" y="112"/>
      <point x="915" y="-10"/>
      <point x="1122" y="-10" type="curve" smooth="yes"/>
      <point x="1255" y="-10"/>
      <point x="1425" y="41"/>
      <point x="1494" y="134" type="curve"/>
      <point x="1536" y="53"/>
      <point x="1573" y="-8"/>
      <point x="1726" y="-8" type="curve" smooth="yes"/>
      <point x="1861" y="-8" type="line"/>
      <point x="1882" y="214" type="line"/>
      <point x="1798" y="214"/>
      <point x="1778" y="249"/>
      <point x="1778" y="341" type="curve" smooth="yes"/>
      <point x="1776" y="819" type="line"/>
      <point x="1776" y="1390"/>
      <point x="1536" y="1540"/>
      <point x="973" y="1540" type="curve" smooth="yes"/>
      <point x="412" y="1540"/>
      <point x="166" y="1270"/>
      <point x="166" y="715" type="curve" smooth="yes"/>
      <point x="166" y="355" type="line" smooth="yes"/>
      <point x="166" y="-390"/>
      <point x="591" y="-573"/>
    </contour>
    <contour>
      <point x="1180" y="234" type="curve" smooth="yes"/>
      <point x="1076" y="234"/>
      <point x="979" y="274"/>
      <point x="979" y="405" type="curve" smooth="yes"/>
      <point x="979" y="514"/>
      <point x="1025" y="585"/>
      <point x="1188" y="630" type="curve" smooth="yes"/>
      <point x="1470" y="708" type="line"/>
      <point x="1470" y="313" type="line" smooth="yes"/>
      <point x="1470" y="287"/>
      <point x="1301" y="234"/>
    </contour>
  </outline>
</glyph>
<glyph name="C" format="1">
  <advance width="1562"/>
  <unicode hex="0043"/>
  <outline>
    <contour>
      <point x="816" y="-28" type="curve" smooth="yes"/>
      <point x="1349" y="-28"/>
      <point x="1422" y="203"/>
      <point x="1422" y="490" type="curve" smooth="yes"/>
      <point x="1422" y="594" type="line"/>
      <point x="1088" y="594" type="line"/>
      <point x="1088" y="454" type="line" smooth="yes"/>
      <point x="1088" y="276"/>
      <point x="1026" y="236"/>
      <point x="816" y="236" type="curve" smooth="yes"/>
      <point x="609" y="236"/>
      <point x="517" y="275"/>
      <point x="517" y="454" type="curve" smooth="yes"/>
      <point x="517" y="1028" type="line" smooth="yes"/>
      <point x="517" y="1206"/>
      <point x="611" y="1252"/>
      <point x="816" y="1252" type="curve" smooth="yes"/>
      <point x="1023" y="1252"/>
      <point x="1088" y="1200"/>
      <point x="1088" y="1028" type="curve" smooth="yes"/>
      <point x="1088" y="904" type="line"/>
      <point x="1422" y="942" type="line"/>
      <point x="1422" y="987" type="line" smooth="yes"/>
      <point x="1422" y="1282"/>
      <point x="1347" y="1516"/>
      <point x="816" y="1516" type="curve" smooth="yes"/>
      <point x="268" y="1516"/>
      <point x="178" y="1288"/>
      <point x="178" y="993" type="curve" smooth="yes"/>
      <point x="178" y="483" type="line" smooth="yes"/>
      <point x="178" y="196"/>
      <point x="271" y="-28"/>
    </contour>
    <contour>
      <point x="786" y="0" type="move" name="top"/>
    </contour>
    <contour>
      <point x="786" y="0" type="move" name="bottom"/>
    </contour>
  </outline>
</glyph>
<glyph name="F" format="1">
  <advance width="1205"/>
  <unicode hex="0046"/>
  <outline>
    <contour>
      <point x="208" y="0" type="line"/>
      <point x="547" y="0" type="line"/>
      <point x="547" y="621" type="line"/>
      <point x="1076" y="621" type="line"/>
      <point x="1076" y="861" type="line"/>
      <point x="547" y="861" type="line"/>
      <point x="547" y="1228" type="line"/>
      <point x="1119" y="1228" type="line"/>
      <point x="1119" y="1490" type="line"/>
      <point x="208" y="1490" type="line"/>
    </contour>
  </outline>
</glyph>
<glyph name="G" format="1">
  <advance width="1656"/>
  <unicode hex="0047"/>
  <outline>
    <contour>
      <point x="856" y="-28" type="curve" smooth="yes"/>
      <point x="1117" y="-28"/>
      <point x="1292" y="52"/>
      <point x="1332" y="237" type="curve"/>
      <point x="1388" y="0" type="line"/>
      <point x="1480" y="0" type="line"/>
      <point x="1480" y="766" type="line"/>
      <point x="902" y="766" type="line"/>
      <point x="902" y="550" type="line"/>
      <point x="1175" y="550" type="line"/>
      <point x="1175" y="454" type="line" smooth="yes"/>
      <point x="1175" y="276"/>
      <point x="1066" y="236"/>
      <point x="856" y="236" type="curve" smooth="yes"/>
      <point x="649" y="236"/>
      <point x="517" y="275"/>
      <point x="517" y="454" type="curve" smooth="yes"/>
      <point x="517" y="1028" type="line" smooth="yes"/>
      <point x="517" y="1206"/>
      <point x="651" y="1252"/>
      <point x="856" y="1252" type="curve" smooth="yes"/>
      <point x="1063" y="1252"/>
      <point x="1145" y="1200"/>
      <point x="1145" y="1028" type="curve" smooth="yes"/>
      <point x="1145" y="948" type="line"/>
      <point x="1480" y="986" type="line"/>
      <point x="1480" y="1011" type="line" smooth="yes"/>
      <point x="1480" y="1306"/>
      <point x="1387" y="1516"/>
      <point x="856" y="1516" type="curve" smooth="yes"/>
      <point x="308" y="1516"/>
      <point x="178" y="1288"/>
      <point x="178" y="993" type="curve" smooth="yes"/>
      <point x="178" y="483" type="line" smooth="yes"/>
      <point x="178" y="196"/>
      <point x="311" y="-28"/>
    </contour>
    <contour>
      <point x="839" y="0" type="move" name="top"/>
    </contour>
    <contour>
      <point x="839" y="0" type="move" name="bottom"/>
    </contour>
  </outline>
</glyph>
<glyph name="K" format="1">
  <advance width="1506"/>
  <unicode hex="004B"/>
  <outline>
    <contour>
      <point x="208" y="0" type="line"/>
      <point x="547" y="0" type="line"/>
      <point x="547" y="573" type="line"/>
      <point x="651" y="674" type="line"/>
      <point x="1104" y="0" type="line"/>
      <point x="1488" y="0" type="line"/>
      <point x="945" y="807" type="line"/>
      <point x="1447" y="1490" type="line"/>
      <point x="1071" y="1490" type="line"/>
      <point x="547" y="806" type="line"/>
      <point x="547" y="1490" type="line"/>
      <point x="208" y="1490" type="line"/>
    </contour>
    <contour>
      <point x="763" y="0" type="move" name="top"/>
    </contour>
    <contour>
      <point x="763" y="0" type="move" name="bottom"/>
    </contour>
  </outline>
</glyph>
<glyph name="N" format="1">
  <advance width="1721"/>
  <unicode hex="004E"/>
  <outline>
    <contour>
      <point x="208" y="0" type="line"/>
      <point x="517" y="0" type="line"/>
      <point x="517" y="948" type="line"/>
      <point x="1267" y="0" type="line"/>
      <point x="1513" y="0" type="line"/>
      <point x="1513" y="1490" type="line"/>
      <point x="1207" y="1490" type="line"/>
      <point x="1207" y="540" type="line"/>
      <point x="465" y="1490" type="line"/>
      <point x="208" y="1490" type="line"/>
    </contour>
    <contour>
      <point x="863" y="0" type="move" name="top"/>
    </contour>
    <contour>
      <point x="863" y="0" type="move" name="bottom"/>
    </contour>
  </outline>
</glyph>
<glyph name="R" format="1">
  <advance width="1536"/>
  <unicode hex="0052"/>
  <outline>
    <contour>
      <point x="208" y="0" type="line"/>
      <point x="547" y="0" type="line"/>
      <point x="547" y="576" type="line"/>
      <point x="833" y="576" type="line"/>
      <point x="1065" y="0" type="line"/>
      <point x="1420" y="0" type="line"/>
      <point x="1161" y="622" type="line"/>
      <point x="1367" y="704"/>
      <point x="1383" y="883"/>
      <point x="1383" y="1043" type="curve" smooth="yes"/>
      <point x="1383" y="1283"/>
      <point x="1309" y="1490"/>
      <point x="851" y="1490" type="curve" smooth="yes"/>
      <point x="208" y="1490" type="line"/>
    </contour>
    <contour>
      <point x="547" y="814" type="line"/>
      <point x="547" y="1252" type="line"/>
      <point x="902" y="1252" type="line" smooth="yes"/>
      <point x="1034" y="1252"/>
      <point x="1063" y="1144"/>
      <point x="1063" y="1032" type="curve" smooth="yes"/>
      <point x="1063" y="911"/>
      <point x="1037" y="814"/>
      <point x="895" y="814" type="curve" smooth="yes"/>
    </contour>
    <contour>
      <point x="768" y="0" type="move" name="top"/>
    </contour>
    <contour>
      <point x="768" y="0" type="move" name="bottom"/>
    </contour>
  </outline>
</glyph>
<glyph name="S" format="1">
  <advance width="1301"/>
  <unicode hex="0053"/>
  <outline>
    <contour>
      <point x="712" y="-28" type="curve" smooth="yes"/>
      <point x="1054" y="-28"/>
      <point x="1194" y="186"/>
      <point x="1194" y="438" type="curve" smooth="yes"/>
      <point x="1194" y="648"/>
      <point x="1086" y="746"/>
      <point x="899" y="831" type="curve" smooth="yes"/>
      <point x="711" y="916" type="line" smooth="yes"/>
      <point x="557" y="986"/>
      <point x="481" y="1018"/>
      <point x="481" y="1114" type="curve" smooth="yes"/>
      <point x="481" y="1199"/>
      <point x="562" y="1252"/>
      <point x="694" y="1252" type="curve" smooth="yes"/>
      <point x="818" y="1252"/>
      <point x="951" y="1216"/>
      <point x="1070" y="1163" type="curve"/>
      <point x="1168" y="1395" type="line"/>
      <point x="1014" y="1482"/>
      <point x="844" y="1516"/>
      <point x="672" y="1516" type="curve" smooth="yes"/>
      <point x="369" y="1516"/>
      <point x="146" y="1368"/>
      <point x="146" y="1083" type="curve" smooth="yes"/>
      <point x="146" y="937"/>
      <point x="214" y="789"/>
      <point x="456" y="682" type="curve" smooth="yes"/>
      <point x="653" y="595" type="line" smooth="yes"/>
      <point x="838" y="513"/>
      <point x="887" y="481"/>
      <point x="887" y="406" type="curve" smooth="yes"/>
      <point x="887" y="318"/>
      <point x="861" y="236"/>
      <point x="704" y="236" type="curve" smooth="yes"/>
      <point x="518" y="236"/>
      <point x="365" y="292"/>
      <point x="251" y="351" type="curve"/>
      <point x="136" y="106" type="line"/>
      <point x="282" y="25"/>
      <point x="518" y="-28"/>
    </contour>
    <contour>
      <point x="645" y="0" type="move" name="top"/>
    </contour>
    <contour>
      <point x="645" y="0" type="move" name="bottom"/>
    </contour>
  </outline>
</glyph>
<glyph name="T" format="1">
  <advance width="1213"/>
  <unicode hex="0054"/>
  <outline>
    <contour>
      <point x="437" y="0" type="line"/>
      <point x="776" y="0" type="line"/>
      <point x="776" y="1236" type="line"/>
      <point x="1161" y="1236" type="line"/>
      <point x="1161" y="1490" type="line"/>
      <point x="52" y="1490" type="line"/>
      <point x="52" y="1236" type="line"/>
      <point x="437" y="1236" type="line"/>
    </contour>
    <contour>
      <point x="607" y="0" type="move" name="top"/>
    </contour>
    <contour>
      <point x="607" y="0" type="move" name="bottom"/>
    </contour>
    <contour>
      <point x="607" y="0" type="move" name="center"/>
    </contour>
  </outline>
</glyph>
<glyph name="V" format="1">
  <advance width="1362"/>
  <unicode hex="0056"/>
  <outline>
    <contour>
      <point x="533" y="0" type="line"/>
      <point x="820" y="0" type="line"/>
      <point x="1336" y="1490" type="line"/>
      <point x="977" y="1490" type="line"/>
      <point x="684" y="467" type="line"/>
      <point x="372" y="1490" type="line"/>
      <point x="26" y="1490" type="line"/>
    </contour>
  </outline>
</glyph>
<glyph name="Y" format="1">
  <advance width="1332"/>
  <unicode hex="0059"/>
  <outline>
    <contour>
      <point x="499" y="0" type="line"/>
      <point x="838" y="0" type="line"/>
      <point x="838" y="505" type="line"/>
      <point x="1328" y="1490" type="line"/>
      <point x="987" y="1490" type="line"/>
      <point x="671" y="848" type="line"/>
      <point x="360" y="1490" type="line"/>
      <point x="4" y="1490" type="line"/>
      <point x="499" y="505" type="line"/>
    </contour>
    <contour>
      <point x="666" y="0" type="move" name="top"/>
    </contour>
  </outline>
</glyph>
<glyph name="Z" format="1">
  <advance width="1195"/>
  <unicode hex="005A"/>
  <outline>
    <contour>
      <point x="118" y="0" type="line"/>
      <point x="1091" y="0" type="line"/>
      <point x="1091" y="207" type="line"/>
      <point x="483" y="207" type="line"/>
      <point x="1080" y="1300" type="line"/>
      <point x="1080" y="1490" type="line"/>
      <point x="144" y="1490" type="line"/>
      <point x="144" y="1283" type="line"/>
      <point x="712" y="1283" type="line"/>
      <point x="118" y="189" type="line"/>
    </contour>
    <contour>
      <point x="594" y="0" type="move" name="top"/>
    </contour>
  </outline>
</glyph>
<glyph name="asciicircum" format="1">
  <advance width="1257"/>
  <unicode hex="005E"/>
  <outline>
    <contour>
      <point x="48" y="461" type="line"/>
      <point x="303" y="461" type="line"/>
      <point x="619" y="1091" type="line"/>
      <point x="933" y="461" type="line"/>
      <point x="1175" y="461" type="line"/>
      <point x="750" y="1283" type="line"/>
      <point x="474" y="1283" type="line"/>
    </contour>
  </outline>
</glyph>
<glyph name="underscore" format="1">
  <advance width="893"/>
  <unicode hex="005F"/>
  <outline>
    <contour>
      <point x="5" y="0" type="line"/>
      <point x="880" y="0" type="line"/>
      <point x="880" y="185" type="line"/>
      <point x="5" y="185" type="line"/>
    </contour>
  </outline>
</glyph>
<glyph name="grave" format="1">
  <advance width="529"/>
  <unicode hex="0060"/>
  <outline>
    <contour>
      <point x="292" y="1153" type="line"/>
      <point x="462" y="1153" type="line"/>
      <point x="349" y="1518" type="line"/>
      <point x="63" y="1518" type="line"/>
    </contour>
    <contour>
      <point x="262.5" y="0" type="move" name="_top"/>
    </contour>
  </outline>
</glyph>
<glyph name="h" format="1">
  <advance width="1318"/>
  <unicode hex="0068"/>
  <outline>
    <contour>
      <point x="178" y="0" type="line"/>
      <point x="488" y="0" type="line"/>
      <point x="488" y="760" type="line" smooth="yes"/>
      <point x="488" y="865"/>
      <point x="616" y="894"/>
      <point x="677" y="894" type="curve" smooth="yes"/>
      <point x="741" y="894"/>
      <point x="843" y="879"/>
      <point x="843" y="763" type="curve" smooth="yes"/>
      <point x="843" y="0" type="line"/>
      <point x="1154" y="0" type="line"/>
      <point x="1154" y="804" type="line" smooth="yes"/>
      <point x="1154" y="991"/>
      <point x="1006" y="1104"/>
      <point x="824" y="1104" type="curve" smooth="yes"/>
      <point x="677" y="1104"/>
      <point x="526" y="1036"/>
      <point x="488" y="960" type="curve"/>
      <point x="488" y="1520" type="line"/>
      <point x="178" y="1520" type="line"/>
    </contour>
    <contour>
      <point x="659" y="0" type="move" name="top"/>
    </contour>
    <contour>
      <point x="659" y="0" type="move" name="center"/>
    </contour>
  </outline>
</glyph>
<glyph name="i" format="1">
  <advance width="666"/>
  <unicode hex="0069"/>
  <outline>
    <contour>
      <point x="178" y="0" type="line"/>
      <point x="488" y="0" type="line"/>
      <point x="488" y="1080" type="line"/>
      <point x="178" y="1080" type="line"/>
    </contour>
    <contour>
      <point x="178" y="1217" type="line"/>
      <point x="488" y="1217" type="line"/>
      <point x="488" y="1478" type="line"/>
      <point x="178" y="1478" type="line"/>
    </contour>
  </outline>
</glyph>
<glyph name="l" format="1">
  <advance width="759"/>
  <unicode hex="006C"/>
  <outline>
    <contour>
      <point x="534" y="-8" type="curve" smooth="yes"/>
      <point x="653" y="-8" type="line"/>
      <point x="673" y="214" type="line"/>
      <point x="654" y="214" type="line" smooth="yes"/>
      <point x="512" y="218"/>
      <point x="488" y="270"/>
      <point x="488" y="363" type="curve" smooth="yes"/>
      <point x="488" y="1520" type="line"/>
      <point x="178" y="1520" type="line"/>
      <point x="178" y="357" type="line" smooth="yes"/>
      <point x="178" y="104"/>
      <point x="292" y="-8"/>
    </contour>
    <contour>
      <point x="380" y="0" type="move" name="top"/>
    </contour>
    <contour>
      <point x="380" y="0" type="move" name="bottom"/>
    </contour>
    <contour>
      <point x="739" y="0" type="move" name="topright"/>
    </contour>
  </outline>
</glyph>
<glyph name="t" format="1">
  <advance width="882"/>
  <unicode hex="0074"/>
  <outline>
    <contour>
      <point x="671" y="-8" type="curve" smooth="yes"/>
      <point x="760" y="-8" type="line"/>
      <point x="780" y="214" type="line"/>
      <point x="744" y="214" type="line" smooth="yes"/>
      <point x="563" y="214"/>
      <point x="521" y="256"/>
      <point x="521" y="386" type="curve" smooth="yes"/>
      <point x="521" y="894" type="line"/>
      <point x="771" y="894" type="line"/>
      <point x="771" y="1080" type="line"/>
      <point x="521" y="1080" type="line"/>
      <point x="521" y="1433" type="line"/>
      <point x="247" y="1433" type="line"/>
      <point x="220" y="1080" type="line"/>
      <point x="85" y="1080" type="line"/>
      <point x="85" y="894" type="line"/>
      <point x="211" y="894" type="line"/>
      <point x="211" y="363" type="line" smooth="yes"/>
      <point x="211" y="69"/>
      <point x="333" y="-8"/>
    </contour>
    <contour>
      <point x="441" y="0" type="move" name="center"/>
    </contour>
    <contour>
      <point x="441" y="0" type="move" name="bottom"/>
    </contour>
  </outline>
</glyph>
<glyph name="z" format="1">
  <advance width="979"/>
  <unicode hex="007A"/>
  <outline>
    <contour>
      <point x="114" y="0" type="line"/>
      <point x="881" y="0" type="line"/>
      <point x="881" y="202" type="line"/>
      <point x="449" y="202" type="line"/>
      <point x="864" y="895" type="line"/>
      <point x="864" y="1080" type="line"/>
      <point x="133" y="1080" type="line"/>
      <point x="133" y="879" type="line"/>
      <point x="514" y="879" type="line"/>
      <point x="114" y="189" type="line"/>
    </contour>
    <contour>
      <point x="490" y="0" type="move" name="top"/>
    </contour>
  </outline>
</glyph>
<glyph name="braceright" format="1">
  <advance width="1024"/>
  <unicode hex="007D"/>
  <outline>
    <contour>
      <point x="204" y="-77" type="curve"/>
      <point x="505" y="-77"/>
      <point x="665" y="-93"/>
      <point x="665" y="313" type="curve" smooth="yes"/>
      <point x="665" y="452" type="line" smooth="yes"/>
      <point x="665" y="555"/>
      <point x="727" y="620"/>
      <point x="838" y="620" type="curve"/>
      <point x="838" y="897" type="line"/>
      <point x="729" y="897"/>
      <point x="665" y="938"/>
      <point x="665" y="1041" type="curve" smooth="yes"/>
      <point x="665" y="1157" type="line" smooth="yes"/>
      <point x="665" y="1502"/>
      <point x="530" y="1594"/>
      <point x="204" y="1594" type="curve"/>
      <point x="204" y="1594"/>
      <point x="203" y="1410"/>
      <point x="204" y="1410" type="curve" smooth="yes"/>
      <point x="324" y="1410"/>
      <point x="347" y="1359"/>
      <point x="347" y="1254" type="curve" smooth="yes"/>
      <point x="347" y="1101" type="line" smooth="yes"/>
      <point x="347" y="888"/>
      <point x="395" y="792"/>
      <point x="532" y="748" type="curve"/>
      <point x="403" y="712"/>
      <point x="348" y="576"/>
      <point x="348" y="387" type="curve" smooth="yes"/>
      <point x="348" y="214" type="line" smooth="yes"/>
      <point x="348" y="127"/>
      <point x="327" y="107"/>
      <point x="204" y="107" type="curve" smooth="yes"/>
      <point x="203" y="107"/>
      <point x="204" y="-77"/>
    </contour>
  </outline>
</glyph>
<glyph name="exclamdown" format="1">
  <advance width="433"/>
  <unicode hex="00A1"/>
  <outline>
    <contour>
      <point x="79" y="-410" type="line"/>
      <point x="362" y="-410" type="line"/>
      <point x="276" y="697" type="line"/>
      <point x="180" y="697" type="line"/>
    </contour>
    <contour>
      <point x="95" y="817" type="line"/>
      <point x="362" y="817" type="line"/>
      <point x="362" y="1080" type="line"/>
      <point x="95" y="1080" type="line"/>
    </contour>
  </outline>
</glyph>
<glyph name="sterling" format="1">
  <advance width="1290"/>
  <unicode hex="00A3"/>
  <outline>
    <contour>
      <point x="184" y="0" type="line"/>
      <point x="1123" y="0" type="line"/>
      <point x="1123" y="254" type="line"/>
      <point x="543" y="254" type="line"/>
      <point x="569" y="600" type="line"/>
      <point x="1089" y="600" type="line"/>
      <point x="1089" y="814" type="line"/>
      <point x="586" y="814" type="line"/>
      <point x="603" y="1039" type="line"/>
      <point x="608" y="1140"/>
      <point x="646" y="1255"/>
      <point x="830" y="1255" type="curve" smooth="yes"/>
      <point x="915" y="1255"/>
      <point x="966" y="1233"/>
      <point x="1108" y="1176" type="curve"/>
      <point x="1185" y="1424" type="line"/>
      <point x="1027" y="1497"/>
      <point x="938" y="1529"/>
      <point x="805" y="1529" type="curve" smooth="yes"/>
      <point x="472" y="1529"/>
      <point x="277" y="1360"/>
      <point x="264" y="1072" type="curve"/>
      <point x="245" y="814" type="line"/>
      <point x="123" y="814" type="line"/>
      <point x="123" y="600" type="line"/>
      <point x="229" y="600" type="line"/>
    </contour>
  </outline>
</glyph>
<glyph name="brokenbar" format="1">
  <advance width="364"/>
  <unicode hex="00A6"/>
  <outline>
    <contour>
      <point x="81" y="-12" type="line"/>
      <point x="275" y="-12" type="line"/>
      <point x="275" y="538" type="line"/>
      <point x="81" y="538" type="line"/>
    </contour>
    <contour>
      <point x="81" y="745" type="line"/>
      <point x="275" y="745" type="line"/>
      <point x="275" y="1295" type="line"/>
      <point x="81" y="1295" type="line"/>
    </contour>
  </outline>
</glyph>
<glyph name="uni00AD" format="1">
  <advance width="665"/>
  <unicode hex="00AD"/>
  <outline>
    <contour>
      <point x="118" y="358" type="line"/>
      <point x="565" y="358" type="line"/>
      <point x="565" y="569" type="line"/>
      <point x="118" y="569" type="line"/>
    </contour>
  </outline>
</glyph>
<glyph name="macron" format="1">
  <advance width="354"/>
  <unicode hex="00AF"/>
  <outline>
    <contour>
      <point x="-110" y="1206" type="line"/>
      <point x="470" y="1206" type="line"/>
      <point x="470" y="1365" type="line"/>
      <point x="-110" y="1365" type="line"/>
    </contour>
    <contour>
      <point x="180" y="0" type="move" name="_top"/>
    </contour>
  </outline>
</glyph>
<glyph name="degree" format="1">
  <advance width="945"/>
  <unicode hex="00B0"/>
  <outline>
    <contour>
      <point x="475" y="1039" type="curve" smooth="yes"/>
      <point x="334" y="1039"/>
      <point x="285" y="1122"/>
      <point x="285" y="1206" type="curve" smooth="yes"/>
      <point x="285" y="1289"/>
      <point x="333" y="1374"/>
      <point x="475" y="1374" type="curve" smooth="yes"/>
      <point x="612" y="1374"/>
      <point x="660" y="1289"/>
      <point x="660" y="1206" type="curve" smooth="yes"/>
      <point x="660" y="1122"/>
      <point x="611" y="1039"/>
    </contour>
    <contour>
      <point x="475" y="873" type="curve" smooth="yes"/>
      <point x="737" y="873"/>
      <point x="847" y="1040"/>
      <point x="847" y="1206" type="curve" smooth="yes"/>
      <point x="847" y="1373"/>
      <point x="736" y="1540"/>
      <point x="475" y="1540" type="curve" smooth="yes"/>
      <point x="209" y="1540"/>
      <point x="98" y="1373"/>
      <point x="98" y="1206" type="curve" smooth="yes"/>
      <point x="98" y="1040"/>
      <point x="208" y="873"/>
    </contour>
  </outline>
</glyph>
<glyph name="uni00B2" format="1">
  <advance width="575"/>
  <unicode hex="00B2"/>
  <outline>
    <contour>
      <point x="58" y="482" type="line"/>
      <point x="511" y="482" type="line"/>
      <point x="511" y="614" type="line"/>
      <point x="254" y="614" type="line"/>
      <point x="320" y="701"/>
      <point x="511" y="903"/>
      <point x="511" y="1030" type="curve" smooth="yes"/>
      <point x="511" y="1171"/>
      <point x="427" y="1256"/>
      <point x="285" y="1256" type="curve" smooth="yes"/>
      <point x="137" y="1256"/>
      <point x="58" y="1162"/>
      <point x="58" y="1019" type="curve"/>
      <point x="242" y="1019" type="line"/>
      <point x="242" y="1050"/>
      <point x="237" y="1125"/>
      <point x="285" y="1125" type="curve" smooth="yes"/>
      <point x="331" y="1125"/>
      <point x="326" y="1061"/>
      <point x="326" y="1030" type="curve" smooth="yes"/>
      <point x="326" y="904"/>
      <point x="94" y="652"/>
      <point x="58" y="605" type="curve"/>
    </contour>
  </outline>
</glyph>
<glyph name="paragraph" format="1">
  <advance width="1210"/>
  <unicode hex="00B6"/>
  <outline>
    <contour>
      <point x="401" y="0" type="line"/>
      <point x="589" y="0" type="line"/>
      <point x="589" y="1332" type="line"/>
      <point x="832" y="1332" type="line"/>
      <point x="832" y="0" type="line"/>
      <point x="1020" y="0" type="line"/>
      <point x="1020" y="1489" type="line"/>
      <point x="407" y="1489" type="line" smooth="yes"/>
      <point x="213" y="1489"/>
      <point x="34" y="1397"/>
      <point x="34" y="1181" type="curve" smooth="yes"/>
      <point x="34" y="957"/>
      <point x="198" y="853"/>
      <point x="401" y="853" type="curve"/>
    </contour>
  </outline>
</glyph>
<glyph name="periodcentered" format="1">
  <advance width="430"/>
  <unicode hex="00B7"/>
  <outline>
    <contour>
      <point x="82" y="562" type="line"/>
      <point x="349" y="562" type="line"/>
      <point x="349" y="823" type="line"/>
      <point x="82" y="823" type="line"/>
    </contour>
  </outline>
</glyph>
<glyph name="cedilla" format="1">
  <advance width="512"/>
  <unicode hex="00B8"/>
  <outline>
    <contour>
      <point x="216" y="-498" type="curve" smooth="yes"/>
      <point x="379" y="-498"/>
      <point x="460" y="-409"/>
      <point x="460" y="-314" type="curve" smooth="yes"/>
      <point x="460" y="-224"/>
      <point x="386" y="-130"/>
      <point x="239" y="-104" type="curve"/>
      <point x="233" y="0" type="line"/>
      <point x="151" y="0" type="line"/>
      <point x="151" y="-178" type="line"/>
      <point x="248" y="-181"/>
      <point x="289" y="-237"/>
      <point x="289" y="-288" type="curve" smooth="yes"/>
      <point x="289" y="-339"/>
      <point x="251" y="-369"/>
      <point x="183" y="-369" type="curve" smooth="yes"/>
      <point x="164" y="-369"/>
      <point x="143" y="-367"/>
      <point x="120" y="-362" type="curve"/>
      <point x="120" y="-488" type="line"/>
      <point x="155" y="-495"/>
      <point x="187" y="-498"/>
    </contour>
    <contour>
      <point x="290" y="0" type="move" name="_bottom"/>
    </contour>
  </outline>
</glyph>
<glyph name="onehalf" format="1">
  <advance width="1896"/>
  <unicode hex="00BD"/>
  <outline>
    <contour>
      <point x="1312" y="-12" type="line"/>
      <point x="1832" y="-12" type="line"/>
      <point x="1832" y="119" type="line"/>
      <point x="1517" y="119" type="line"/>
      <point x="1636" y="206"/>
      <point x="1832" y="408"/>
      <point x="1832" y="535" type="curve" smooth="yes"/>
      <point x="1832" y="676"/>
      <point x="1748" y="761"/>
      <point x="1573" y="761" type="curve" smooth="yes"/>
      <point x="1391" y="761"/>
      <point x="1312" y="667"/>
      <point x="1312" y="524" type="curve"/>
      <point x="1497" y="524" type="line"/>
      <point x="1497" y="555"/>
      <point x="1491" y="631"/>
      <point x="1573" y="631" type="curve" smooth="yes"/>
      <point x="1652" y="631"/>
      <point x="1647" y="566"/>
      <point x="1647" y="535" type="curve" smooth="yes"/>
      <point x="1647" y="409"/>
      <point x="1348" y="157"/>
      <point x="1312" y="110" type="curve"/>
    </contour>
    <contour>
      <point x="164" y="536" type="line"/>
      <point x="348" y="536" type="line"/>
      <point x="348" y="1310" type="line"/>
      <point x="277" y="1310" type="line"/>
      <point x="218" y="1238"/>
      <point x="140" y="1186"/>
      <point x="57" y="1145" type="curve"/>
      <point x="57" y="1019" type="line"/>
      <point x="164" y="1019" type="line"/>
    </contour>
    <contour>
      <point x="353" y="0" type="line"/>
      <point x="619" y="0" type="line"/>
      <point x="1406" y="1518" type="line"/>
      <point x="1212" y="1518" type="line"/>
    </contour>
  </outline>
</glyph>
<glyph name="Oslash" format="1">
  <advance width="1688"/>
  <unicode hex="00D8"/>
  <outline>
    <contour>
      <point x="515" y="-226" type="line"/>
      <point x="1258" y="1691" type="line"/>
      <point x="1178" y="1707" type="line"/>
      <point x="435" y="-210" type="line"/>
    </contour>
    <component base="O"/>
    <contour>
      <point x="844" y="0" type="move" name="top"/>
    </contour>
  </outline>
</glyph>
<glyph name="Thorn" format="1">
  <advance width="1344"/>
  <unicode hex="00DE"/>
  <outline>
    <contour>
      <point x="186" y="0" type="line"/>
      <point x="525" y="0" type="line"/>
      <point x="525" y="357" type="line"/>
      <point x="720" y="357" type="line" smooth="yes"/>
      <point x="1168" y="357"/>
      <point x="1275" y="488"/>
      <point x="1275" y="828" type="curve" smooth="yes"/>
      <point x="1275" y="1161"/>
      <point x="1124" y="1267"/>
      <point x="761" y="1267" type="curve" smooth="yes"/>
      <point x="525" y="1267" type="line"/>
      <point x="525" y="1489" type="line"/>
      <point x="186" y="1489" type="line"/>
    </contour>
    <contour>
      <point x="525" y="603" type="line"/>
      <point x="525" y="1029" type="line"/>
      <point x="798" y="1029" type="line" smooth="yes"/>
      <point x="920" y="1029"/>
      <point x="963" y="974"/>
      <point x="963" y="813" type="curve" smooth="yes"/>
      <point x="963" y="623"/>
      <point x="926" y="603"/>
      <point x="786" y="603" type="curve" smooth="yes"/>
    </contour>
  </outline>
</glyph>
<glyph name="eth" format="1">
  <advance width="1469"/>
  <unicode hex="00F0"/>
  <outline>
    <contour>
      <point x="742" y="-24" type="curve" smooth="yes"/>
      <point x="1125" y="-24"/>
      <point x="1291" y="120"/>
      <point x="1291" y="415" type="curve" smooth="yes"/>
      <point x="1291" y="536" type="line" smooth="yes"/>
      <point x="1291" y="1045"/>
      <point x="1048" y="1289"/>
      <point x="786" y="1410" type="curve"/>
      <point x="876" y="1549" type="line"/>
      <point x="757" y="1631" type="line"/>
      <point x="648" y="1463" type="line"/>
      <point x="553" y="1493"/>
      <point x="461" y="1511"/>
      <point x="382" y="1522" type="curve"/>
      <point x="302" y="1300" type="line"/>
      <point x="370" y="1286"/>
      <point x="441" y="1272"/>
      <point x="511" y="1251" type="curve"/>
      <point x="440" y="1142" type="line"/>
      <point x="558" y="1060" type="line"/>
      <point x="649" y="1200" type="line"/>
      <point x="768" y="1145"/>
      <point x="868" y="1061"/>
      <point x="918" y="921" type="curve"/>
      <point x="891" y="944"/>
      <point x="728" y="975"/>
      <point x="662" y="975" type="curve" smooth="yes"/>
      <point x="399" y="975"/>
      <point x="178" y="846"/>
      <point x="178" y="606" type="curve" smooth="yes"/>
      <point x="178" y="354" type="line" smooth="yes"/>
      <point x="178" y="118"/>
      <point x="376" y="-24"/>
    </contour>
    <contour>
      <point x="742" y="220" type="curve" smooth="yes"/>
      <point x="595" y="220"/>
      <point x="517" y="265"/>
      <point x="517" y="407" type="curve" smooth="yes"/>
      <point x="517" y="541" type="line" smooth="yes"/>
      <point x="517" y="672"/>
      <point x="596" y="722"/>
      <point x="742" y="722" type="curve" smooth="yes"/>
      <point x="802" y="722"/>
      <point x="898" y="702"/>
      <point x="941" y="672" type="curve"/>
      <point x="956" y="590"/>
      <point x="964" y="513"/>
      <point x="964" y="482" type="curve" smooth="yes"/>
      <point x="964" y="458" type="line" smooth="yes"/>
      <point x="964" y="328"/>
      <point x="975" y="220"/>
    </contour>
  </outline>
</glyph>
<glyph name="thorn" format="1">
  <advance width="1276"/>
  <unicode hex="00FE"/>
  <outline>
    <contour>
      <point x="178" y="-411" type="line"/>
      <point x="489" y="-411" type="line"/>
      <point x="489" y="10" type="line"/>
      <point x="542" y="-12"/>
      <point x="604" y="-24"/>
      <point x="674" y="-24" type="curve" smooth="yes"/>
      <point x="989" y="-24"/>
      <point x="1124" y="147"/>
      <point x="1124" y="318" type="curve" smooth="yes"/>
      <point x="1124" y="760" type="line" smooth="yes"/>
      <point x="1124" y="968"/>
      <point x="965" y="1104"/>
      <point x="710" y="1104" type="curve" smooth="yes"/>
      <point x="627" y="1104"/>
      <point x="553" y="1085"/>
      <point x="489" y="1055" type="curve"/>
      <point x="489" y="1520" type="line"/>
      <point x="178" y="1520" type="line"/>
    </contour>
    <contour>
      <point x="647" y="186" type="curve" smooth="yes"/>
      <point x="544" y="186"/>
      <point x="489" y="228"/>
      <point x="489" y="228" type="curve"/>
      <point x="489" y="849" type="line"/>
      <point x="527" y="881"/>
      <point x="589" y="894"/>
      <point x="657" y="894" type="curve" smooth="yes"/>
      <point x="760" y="894"/>
      <point x="814" y="859"/>
      <point x="814" y="760" type="curve" smooth="yes"/>
      <point x="814" y="318" type="line" smooth="yes"/>
      <point x="814" y="219"/>
      <point x="760" y="186"/>
    </contour>
  </outline>
</glyph>
<glyph name="hbar" format="1">
  <advance width="1318"/>
  <unicode hex="0127"/>
  <outline>
    <contour>
      <point x="52" y="1208" type="line"/>
      <point x="745" y="1208" type="line"/>
      <point x="745" y="1360" type="line"/>
      <point x="52" y="1360" type="line"/>
    </contour>
    <component base="h"/>
  </outline>
</glyph>
<glyph name="Lslash" format="1">
  <advance width="1234"/>
  <unicode hex="0141"/>
  <outline>
    <contour>
      <point x="12" y="708" type="line"/>
      <point x="778" y="928" type="line"/>
      <point x="778" y="1080" type="line"/>
      <point x="12" y="860" type="line"/>
    </contour>
    <component base="L"/>
  </outline>
</glyph>
<glyph name="lslash" format="1">
  <advance width="520"/>
  <unicode hex="0142"/>
  <outline>
    <contour>
      <point x="-15" y="708" type="line"/>
      <point x="568" y="928" type="line"/>
      <point x="568" y="1080" type="line"/>
      <point x="-15" y="860" type="line"/>
    </contour>
    <component base="l" xOffset="-52"/>
  </outline>
</glyph>
<glyph name="Eng" format="1">
  <advance width="1318"/>
  <unicode hex="014A"/>
  <outline>
    <contour>
      <point x="933" y="-386" type="line"/>
      <point x="1424" y="-386"/>
      <point x="1482" y="-202"/>
      <point x="1482" y="179" type="curve"/>
      <point x="1482" y="1490" type="line"/>
      <point x="1176" y="1490" type="line"/>
      <point x="1176" y="600" type="line"/>
      <point x="434" y="1490" type="line"/>
      <point x="177" y="1490" type="line"/>
      <point x="177" y="0" type="line"/>
      <point x="486" y="0" type="line"/>
      <point x="486" y="948" type="line"/>
      <point x="1172" y="136" type="line"/>
      <point x="1172" y="118" type="line" smooth="yes"/>
      <point x="1172" y="-142"/>
      <point x="1134" y="-154"/>
      <point x="905" y="-175" type="curve"/>
    </contour>
  </outline>
</glyph>
<glyph name="oe" format="1">
  <advance width="1884"/>
  <unicode hex="0153"/>
  <outline>
    <contour>
      <point x="630" y="-24" type="curve" smooth="yes"/>
      <point x="774" y="-24"/>
      <point x="879" y="17"/>
      <point x="954" y="76" type="curve"/>
      <point x="1041" y="10"/>
      <point x="1155" y="-24"/>
      <point x="1271" y="-24" type="curve" smooth="yes"/>
      <point x="1561" y="-24"/>
      <point x="1738" y="33"/>
      <point x="1738" y="369" type="curve"/>
      <point x="1448" y="369" type="line"/>
      <point x="1448" y="206"/>
      <point x="1381" y="186"/>
      <point x="1278" y="186" type="curve" smooth="yes"/>
      <point x="1179" y="186"/>
      <point x="1108" y="211"/>
      <point x="1108" y="318" type="curve" smooth="yes"/>
      <point x="1108" y="515" type="line"/>
      <point x="1738" y="515" type="line"/>
      <point x="1738" y="740" type="line" smooth="yes"/>
      <point x="1738" y="962"/>
      <point x="1617" y="1104"/>
      <point x="1269" y="1104" type="curve" smooth="yes"/>
      <point x="1144" y="1104"/>
      <point x="1034" y="1069"/>
      <point x="951" y="989" type="curve"/>
      <point x="869" y="1068"/>
      <point x="759" y="1104"/>
      <point x="630" y="1104" type="curve" smooth="yes"/>
      <point x="346" y="1104"/>
      <point x="152" y="980"/>
      <point x="152" y="750" type="curve" smooth="yes"/>
      <point x="152" y="330" type="line" smooth="yes"/>
      <point x="152" y="108"/>
      <point x="282" y="-24"/>
    </contour>
    <contour>
      <point x="630" y="186" type="curve" smooth="yes"/>
      <point x="517" y="186"/>
      <point x="462" y="220"/>
      <point x="462" y="319" type="curve" smooth="yes"/>
      <point x="462" y="761" type="line" smooth="yes"/>
      <point x="462" y="860"/>
      <point x="527" y="894"/>
      <point x="630" y="894" type="curve" smooth="yes"/>
      <point x="743" y="894"/>
      <point x="798" y="860"/>
      <point x="798" y="761" type="curve" smooth="yes"/>
      <point x="798" y="319" type="line" smooth="yes"/>
      <point x="798" y="220"/>
      <point x="733" y="186"/>
    </contour>
    <contour>
      <point x="1108" y="664" type="line"/>
      <point x="1108" y="760" type="line" smooth="yes"/>
      <point x="1108" y="866"/>
      <point x="1187" y="894"/>
      <point x="1278" y="894" type="curve" smooth="yes"/>
      <point x="1372" y="894"/>
      <point x="1448" y="875"/>
      <point x="1448" y="760" type="curve" smooth="yes"/>
      <point x="1448" y="664" type="line"/>
    </contour>
    <contour>
      <point x="945" y="0" type="move" name="top"/>
    </contour>
  </outline>
</glyph>
<glyph name="uni0237" format="1">
  <advance width="671"/>
  <unicode hex="0237"/>
  <outline>
    <contour>
      <point x="-32" y="-319" type="line"/>
      <point x="96" y="-319" type="line" smooth="yes"/>
      <point x="391" y="-319"/>
      <point x="493" y="-130"/>
      <point x="493" y="40" type="curve" smooth="yes"/>
      <point x="493" y="1080" type="line"/>
      <point x="183" y="1080" type="line"/>
      <point x="183" y="64" type="line" smooth="yes"/>
      <point x="183" y="21"/>
      <point x="163" y="-108"/>
      <point x="20" y="-108" type="curve" smooth="yes"/>
      <point x="-32" y="-108" type="line"/>
    </contour>
    <contour>
      <point x="336" y="0" type="move" name="top"/>
    </contour>
  </outline>
</glyph>
<glyph name="circumflex" format="1">
  <advance width="512"/>
  <unicode hex="02C6"/>
  <outline>
    <contour>
      <point x="-30" y="1206" type="line"/>
      <point x="159" y="1206" type="line"/>
      <point x="297" y="1381" type="line"/>
      <point x="426" y="1206" type="line"/>
      <point x="610" y="1206" type="line"/>
      <point x="380" y="1520" type="line"/>
      <point x="212" y="1520" type="line"/>
    </contour>
    <contour>
      <point x="290" y="0" type="move" name="_top"/>
    </contour>
  </outline>
</glyph>
<glyph name="caron" format="1">
  <advance width="512"/>
  <unicode hex="02C7"/>
  <outline>
    <contour>
      <point x="200" y="1206" type="line"/>
      <point x="368" y="1206" type="line"/>
      <point x="610" y="1520" type="line"/>
      <point x="421" y="1520" type="line"/>
      <point x="283" y="1345" type="line"/>
      <point x="154" y="1520" type="line"/>
      <point x="-30" y="1520" type="line"/>
    </contour>
    <contour>
      <point x="290" y="0" type="move" name="_top"/>
    </contour>
  </outline>
</glyph>
<glyph name="uni02C9" format="1">
  <advance width="354"/>
  <unicode hex="02C9"/>
  <outline>
    <contour>
      <point x="-30" y="1206" type="line"/>
      <point x="390" y="1206" type="line"/>
      <point x="390" y="1365" type="line"/>
      <point x="-30" y="1365" type="line"/>
    </contour>
  </outline>
</glyph>
<glyph name="ring" format="1">
  <advance width="626"/>
  <unicode hex="02DA"/>
  <outline>
    <contour>
      <point x="313" y="1134" type="curve" smooth="yes"/>
      <point x="241" y="1134"/>
      <point x="192" y="1162"/>
      <point x="192" y="1263" type="curve" smooth="yes"/>
      <point x="192" y="1363"/>
      <point x="241" y="1390"/>
      <point x="312" y="1390" type="curve" smooth="yes"/>
      <point x="385" y="1390"/>
      <point x="434" y="1362"/>
      <point x="434" y="1261" type="curve" smooth="yes"/>
      <point x="434" y="1161"/>
      <point x="385" y="1134"/>
    </contour>
    <contour>
      <point x="313" y="1034" type="curve" smooth="yes"/>
      <point x="475" y="1034"/>
      <point x="558" y="1120"/>
      <point x="558" y="1262" type="curve" smooth="yes"/>
      <point x="558" y="1403"/>
      <point x="474" y="1489"/>
      <point x="313" y="1489" type="curve" smooth="yes"/>
      <point x="151" y="1489"/>
      <point x="68" y="1404"/>
      <point x="68" y="1262" type="curve" smooth="yes"/>
      <point x="68" y="1120"/>
      <point x="151" y="1034"/>
    </contour>
    <contour>
      <point x="313" y="0" type="move" name="_top"/>
    </contour>
  </outline>
</glyph>
<glyph name="ogonek" format="1">
  <advance width="475"/>
  <unicode hex="02DB"/>
  <outline>
    <contour>
      <point x="411" y="-517" type="curve"/>
      <point x="430" y="-358" type="line"/>
      <point x="358" y="-358"/>
      <point x="251" y="-359"/>
      <point x="251" y="-241" type="curve" smooth="yes"/>
      <point x="251" y="-150"/>
      <point x="289" y="-72"/>
      <point x="318" y="13" type="curve"/>
      <point x="180" y="13" type="line"/>
      <point x="107" y="-61"/>
      <point x="40" y="-186"/>
      <point x="40" y="-295" type="curve" smooth="yes"/>
      <point x="40" y="-511"/>
      <point x="259" y="-521"/>
    </contour>
    <contour>
      <point x="430" y="10" type="move" name="_ogonek"/>
    </contour>
  </outline>
</glyph>
<glyph name="uni0307" format="1">
  <advance width="479"/>
  <unicode hex="0307"/>
  <outline>
    <contour>
      <point x="121" y="1240" type="line"/>
      <point x="388" y="1240" type="line"/>
      <point x="388" y="1504" type="line"/>
      <point x="121" y="1504" type="line"/>
    </contour>
    <contour>
      <point x="254.5" y="0" type="move" name="_top"/>
    </contour>
  </outline>
</glyph>
<glyph name="dblgravecmb" format="1">
  <advance width="1024"/>
  <unicode hex="030F"/>
  <outline>
    <contour>
      <point x="324" y="1080" type="line"/>
      <point x="503" y="1080" type="line"/>
      <point x="390" y="1491" type="line"/>
      <point x="71" y="1491" type="line"/>
    </contour>
    <contour>
      <point x="774" y="1080" type="line"/>
      <point x="953" y="1080" type="line"/>
      <point x="840" y="1491" type="line"/>
      <point x="521" y="1491" type="line"/>
    </contour>
    <contour>
      <point x="512" y="0" type="move" name="_top"/>
    </contour>
  </outline>
</glyph>
<glyph name="commaaccentcomb" format="1">
  <advance width="645"/>
  <unicode hex="0326"/>
  <outline>
    <contour>
      <point x="322" y="-818" type="line"/>
      <point x="386" y="-760"/>
      <point x="528" y="-557"/>
      <point x="528" y="-352" type="curve" smooth="yes"/>
      <point x="528" y="-111" type="line"/>
      <point x="178" y="-111" type="line"/>
      <point x="178" y="-406" type="line"/>
      <point x="354" y="-406" type="line"/>
      <point x="354" y="-547"/>
      <point x="257" y="-711"/>
      <point x="204" y="-770" type="curve"/>
    </contour>
    <contour>
      <point x="353" y="0" type="move" name="_bottom"/>
    </contour>
  </outline>
</glyph>
<glyph name="Delta" format="1">
  <advance width="1141"/>
  <unicode hex="0394"/>
  <outline>
    <contour>
      <point x="65" y="0" type="line"/>
      <point x="1078" y="0" type="line"/>
      <point x="764" y="1360" type="line"/>
      <point x="379" y="1360" type="line"/>
    </contour>
    <contour>
      <point x="345" y="159" type="line"/>
      <point x="570" y="1042" type="line"/>
      <point x="796" y="159" type="line"/>
    </contour>
  </outline>
</glyph>
<glyph name="endash" format="1">
  <advance width="436"/>
  <unicode hex="2013"/>
  <outline>
    <contour>
      <point x="3" y="375" type="line"/>
      <point x="431" y="375" type="line"/>
      <point x="431" y="559" type="line"/>
      <point x="3" y="559" type="line"/>
    </contour>
  </outline>
</glyph>
<glyph name="bullet" format="1">
  <advance width="1036"/>
  <unicode hex="2022"/>
  <outline>
    <contour>
      <point x="518" y="431" type="curve" smooth="yes"/>
      <point x="696" y="431"/>
      <point x="842" y="576"/>
      <point x="842" y="755" type="curve" smooth="yes"/>
      <point x="842" y="933"/>
      <point x="696" y="1079"/>
      <point x="518" y="1079" type="curve" smooth="yes"/>
      <point x="340" y="1079"/>
      <point x="194" y="933"/>
      <point x="194" y="755" type="curve" smooth="yes"/>
      <point x="194" y="576"/>
      <point x="340" y="431"/>
    </contour>
  </outline>
</glyph>
<glyph name="perthousand" format="1">
  <advance width="2886"/>
  <unicode hex="2030"/>
  <outline>
    <contour>
      <point x="508" y="794" type="curve" smooth="yes"/>
      <point x="385" y="794"/>
      <point x="374" y="892"/>
      <point x="374" y="1024" type="curve" smooth="yes"/>
      <point x="374" y="1111" type="line" smooth="yes"/>
      <point x="374" y="1238"/>
      <point x="381" y="1325"/>
      <point x="508" y="1325" type="curve" smooth="yes"/>
      <point x="635" y="1325"/>
      <point x="643" y="1238"/>
      <point x="643" y="1109" type="curve" smooth="yes"/>
      <point x="643" y="1024" type="line" smooth="yes"/>
      <point x="643" y="892"/>
      <point x="630" y="794"/>
    </contour>
    <contour>
      <point x="508" y="658" type="curve" smooth="yes"/>
      <point x="738" y="658"/>
      <point x="814" y="808"/>
      <point x="814" y="1037" type="curve" smooth="yes"/>
      <point x="814" y="1091" type="line"/>
      <point x="812" y="1324"/>
      <point x="738" y="1461"/>
      <point x="508" y="1461" type="curve" smooth="yes"/>
      <point x="277" y="1461"/>
      <point x="206" y="1323"/>
      <point x="206" y="1090" type="curve" smooth="yes"/>
      <point x="206" y="1037" type="line" smooth="yes"/>
      <point x="206" y="809"/>
      <point x="278" y="658"/>
    </contour>
    <contour>
      <point x="1631" y="117" type="curve" smooth="yes"/>
      <point x="1508" y="117"/>
      <point x="1497" y="215"/>
      <point x="1497" y="347" type="curve" smooth="yes"/>
      <point x="1497" y="434" type="line" smooth="yes"/>
      <point x="1497" y="561"/>
      <point x="1504" y="648"/>
      <point x="1631" y="648" type="curve" smooth="yes"/>
      <point x="1758" y="648"/>
      <point x="1766" y="561"/>
      <point x="1766" y="432" type="curve" smooth="yes"/>
      <point x="1766" y="347" type="line" smooth="yes"/>
      <point x="1766" y="215"/>
      <point x="1753" y="117"/>
    </contour>
    <contour>
      <point x="1631" y="-19" type="curve" smooth="yes"/>
      <point x="1861" y="-19"/>
      <point x="1937" y="131"/>
      <point x="1937" y="360" type="curve" smooth="yes"/>
      <point x="1937" y="414" type="line"/>
      <point x="1935" y="647"/>
      <point x="1861" y="784"/>
      <point x="1631" y="784" type="curve" smooth="yes"/>
      <point x="1400" y="784"/>
      <point x="1329" y="646"/>
      <point x="1329" y="413" type="curve" smooth="yes"/>
      <point x="1329" y="360" type="line" smooth="yes"/>
      <point x="1329" y="132"/>
      <point x="1401" y="-19"/>
    </contour>
    <contour>
      <point x="2374" y="117" type="curve" smooth="yes"/>
      <point x="2251" y="117"/>
      <point x="2240" y="215"/>
      <point x="2240" y="347" type="curve" smooth="yes"/>
      <point x="2240" y="434" type="line" smooth="yes"/>
      <point x="2240" y="561"/>
      <point x="2247" y="648"/>
      <point x="2374" y="648" type="curve" smooth="yes"/>
      <point x="2501" y="648"/>
      <point x="2509" y="561"/>
      <point x="2509" y="432" type="curve" smooth="yes"/>
      <point x="2509" y="347" type="line" smooth="yes"/>
      <point x="2509" y="215"/>
      <point x="2496" y="117"/>
    </contour>
    <contour>
      <point x="2374" y="-19" type="curve" smooth="yes"/>
      <point x="2604" y="-19"/>
      <point x="2680" y="131"/>
      <point x="2680" y="360" type="curve" smooth="yes"/>
      <point x="2680" y="414" type="line"/>
      <point x="2678" y="647"/>
      <point x="2604" y="784"/>
      <point x="2374" y="784" type="curve" smooth="yes"/>
      <point x="2143" y="784"/>
      <point x="2072" y="646"/>
      <point x="2072" y="413" type="curve" smooth="yes"/>
      <point x="2072" y="360" type="line" smooth="yes"/>
      <point x="2072" y="132"/>
      <point x="2144" y="-19"/>
    </contour>
    <contour>
      <point x="705" y="0" type="line"/>
      <point x="894" y="0" type="line"/>
      <point x="1432" y="1446" type="line"/>
      <point x="1248" y="1446" type="line"/>
    </contour>
  </outline>
</glyph>
<glyph name="fraction" format="1">
  <advance width="986"/>
  <unicode hex="2044"/>
  <outline>
    <contour>
      <point x="72" y="0" type="line"/>
      <point x="340" y="0" type="line"/>
      <point x="914" y="1520" type="line"/>
      <point x="646" y="1520" type="line"/>
    </contour>
  </outline>
</glyph>
<glyph name="minus" format="1">
  <advance width="740"/>
  <unicode hex="2212"/>
  <outline>
    <contour>
      <point x="113" y="439" type="line"/>
      <point x="618" y="439" type="line"/>
      <point x="618" y="624" type="line"/>
      <point x="113" y="624" type="line"/>
    </contour>
  </outline>
</glyph>
<glyph name="lozenge" format="1">
  <advance width="1104"/>
  <unicode hex="25CA"/>
  <outline>
    <contour>
      <point x="460" y="0" type="line"/>
      <point x="670" y="0" type="line"/>
      <point x="1008" y="754" type="line"/>
      <point x="670" y="1505" type="line"/>
      <point x="460" y="1505" type="line"/>
      <point x="96" y="754" type="line"/>
    </contour>
    <contour>
      <point x="567" y="200" type="line"/>
      <point x="325" y="754" type="line"/>
      <point x="567" y="1295" type="line"/>
      <point x="784" y="754" type="line"/>
    </contour>
  </outline>
</glyph>
